<svg xmlns="http://www.w3.org/2000/svg" viewBox="0 0 520 580" width="520" height="580" font-family="system-ui,sans-serif">
<style>.lbl{font-size:12px;fill:#1e293b;font-weight:600}.cap{font-size:14px;fill:#1e293b;font-weight:700}.sub{font-size:11px;fill:#64748b}</style>
<text x="260" y="26" text-anchor="middle" class="cap">Impact Sunburst · androidx.appcompat</text>
<text x="260" y="44" text-anchor="middle" class="sub">1.6.1 -&gt; 1.7.1 &#183; 6 archivos</text>
<path d="M 260.00 200.00 L 260.00 155.00 A 135.00 135.00 0 1 1 143.09 357.50 L 182.06 335.00 A 90.00 90.00 0 1 0 260.00 200.00 Z" fill="#312e81" opacity="0.85"/>
<text x="357.9" y="346.5" text-anchor="middle" class="lbl" fill="#fff">commonMain</text>
<path d="M 182.06 335.00 L 143.09 357.50 A 135.00 135.00 0 0 1 143.09 222.50 L 182.06 245.00 A 90.00 90.00 0 0 0 182.06 335.00 Z" fill="#0f766e" opacity="0.85"/>
<text x="147.0" y="290.0" text-anchor="middle" class="lbl" fill="#fff">androidMain</text>
<path d="M 182.06 245.00 L 143.09 222.50 A 135.00 135.00 0 0 1 260.00 155.00 L 260.00 200.00 A 90.00 90.00 0 0 0 182.06 245.00 Z" fill="#9d174d" opacity="0.85"/>
<text x="203.5" y="192.1" text-anchor="middle" class="lbl" fill="#fff">iosMain</text>
<path d="M 260.00 150.00 L 260.00 90.00 A 200.00 200.00 0 1 1 86.79 390.00 L 138.76 360.00 A 140.00 140.00 0 1 0 260.00 150.00 Z" fill="#94A3B8" opacity="0.9"/>
<path d="M 138.76 360.00 L 86.79 390.00 A 200.00 200.00 0 0 1 86.79 190.00 L 138.76 220.00 A 140.00 140.00 0 0 0 138.76 360.00 Z" fill="#94A3B8" opacity="0.9"/>
<path d="M 138.76 220.00 L 86.79 190.00 A 200.00 200.00 0 0 1 260.00 90.00 L 260.00 150.00 A 140.00 140.00 0 0 0 138.76 220.00 Z" fill="#94A3B8" opacity="0.9"/>
<g transform="translate(20,560)"><rect width="14" height="14" fill="#B91C1C"/><text x="20" y="11" class="sub">Directo</text><rect x="90" width="14" height="14" fill="#1D4ED8"/><text x="110" y="11" class="sub">Transitivo</text><rect x="200" width="14" height="14" fill="#94A3B8"/><text x="220" y="11" class="sub">Expect/Actual</text><rect x="330" width="14" height="14" fill="#e5e7eb" stroke="#cbd5e1"/><text x="350" y="11" class="sub">Sin impacto</text></g>
</svg>