<svg xmlns="http://www.w3.org/2000/svg" viewBox="0 0 520 580" width="520" height="580" font-family="system-ui,sans-serif">
<style>.lbl{font-size:12px;fill:#1e293b;font-weight:600}.cap{font-size:14px;fill:#1e293b;font-weight:700}.sub{font-size:11px;fill:#64748b}</style>
<text x="260" y="26" text-anchor="middle" class="cap">Impact Sunburst · androidx.compose.foundation</text>
<text x="260" y="44" text-anchor="middle" class="sub">1.6.1 -&gt; 1.11.0 &#183; 21 archivos</text>
<path d="M 260.00 200.00 L 260.00 155.00 A 135.00 135.00 0 1 1 201.43 411.63 L 220.95 371.09 A 90.00 90.00 0 1 0 260.00 200.00 Z" fill="#312e81" opacity="0.85"/>
<text x="370.2" y="315.1" text-anchor="middle" class="lbl" fill="#fff">commonMain</text>
<path d="M 220.95 371.09 L 201.43 411.63 A 135.00 135.00 0 0 1 125.38 279.91 L 170.25 283.27 A 90.00 90.00 0 0 0 220.95 371.09 Z" fill="#0f766e" opacity="0.85"/>
<text x="162.1" y="346.5" text-anchor="middle" class="lbl" fill="#fff">androidMain</text>
<path d="M 170.25 283.27 L 125.38 279.91 A 135.00 135.00 0 0 1 183.95 178.46 L 209.30 215.64 A 90.00 90.00 0 0 0 170.25 283.27 Z" fill="#9d174d" opacity="0.85"/>
<text x="162.1" y="233.5" text-anchor="middle" class="lbl" fill="#fff">iosMain</text>
<path d="M 209.30 215.64 L 183.95 178.46 A 135.00 135.00 0 0 1 260.00 155.00 L 260.00 200.00 A 90.00 90.00 0 0 0 209.30 215.64 Z" fill="#6b7280" opacity="0.85"/>
<text x="226.7" y="182.0" text-anchor="middle" class="lbl" fill="#fff">commonTest</text>
<path d="M 260.00 150.00 L 260.00 90.00 A 200.00 200.00 0 0 1 433.21 390.00 L 381.24 360.00 A 140.00 140.00 0 0 0 260.00 150.00 Z" fill="#B91C1C" opacity="0.9"/>
<path d="M 381.24 360.00 L 433.21 390.00 A 200.00 200.00 0 0 1 396.03 436.61 L 355.22 392.63 A 140.00 140.00 0 0 0 381.24 360.00 Z" fill="#1D4ED8" opacity="0.9"/>
<path d="M 355.22 392.63 L 396.03 436.61 A 200.00 200.00 0 0 1 173.22 470.19 L 199.26 416.14 A 140.00 140.00 0 0 0 355.22 392.63 Z" fill="#94A3B8" opacity="0.9"/>
<path d="M 199.26 416.14 L 173.22 470.19 A 200.00 200.00 0 0 1 86.79 390.00 L 138.76 360.00 A 140.00 140.00 0 0 0 199.26 416.14 Z" fill="#B91C1C" opacity="0.9"/>
<path d="M 138.76 360.00 L 86.79 390.00 A 200.00 200.00 0 0 1 65.01 334.50 L 123.51 321.15 A 140.00 140.00 0 0 0 138.76 360.00 Z" fill="#1D4ED8" opacity="0.9"/>
<path d="M 123.51 321.15 L 65.01 334.50 A 200.00 200.00 0 0 1 60.56 275.05 L 120.39 279.54 A 140.00 140.00 0 0 0 123.51 321.15 Z" fill="#94A3B8" opacity="0.9"/>
<path d="M 120.39 279.54 L 60.56 275.05 A 200.00 200.00 0 0 1 103.63 165.30 L 150.54 202.71 A 140.00 140.00 0 0 0 120.39 279.54 Z" fill="#1D4ED8" opacity="0.9"/>
<path d="M 150.54 202.71 L 103.63 165.30 A 200.00 200.00 0 0 1 147.34 124.75 L 181.14 174.33 A 140.00 140.00 0 0 0 150.54 202.71 Z" fill="#94A3B8" opacity="0.9"/>
<path d="M 181.14 174.33 L 147.34 124.75 A 200.00 200.00 0 0 1 201.05 98.89 L 218.73 156.22 A 140.00 140.00 0 0 0 181.14 174.33 Z" fill="#B91C1C" opacity="0.9"/>
<path d="M 218.73 156.22 L 201.05 98.89 A 200.00 200.00 0 0 1 260.00 90.00 L 260.00 150.00 A 140.00 140.00 0 0 0 218.73 156.22 Z" fill="#1D4ED8" opacity="0.9"/>
<g transform="translate(20,560)"><rect width="14" height="14" fill="#B91C1C"/><text x="20" y="11" class="sub">Directo</text><rect x="90" width="14" height="14" fill="#1D4ED8"/><text x="110" y="11" class="sub">Transitivo</text><rect x="200" width="14" height="14" fill="#94A3B8"/><text x="220" y="11" class="sub">Expect/Actual</text><rect x="330" width="14" height="14" fill="#e5e7eb" stroke="#cbd5e1"/><text x="350" y="11" class="sub">Sin impacto</text></g>
</svg>