<svg xmlns="http://www.w3.org/2000/svg" viewBox="0 0 520 580" width="520" height="580" font-family="system-ui,sans-serif">
<style>.lbl{font-size:12px;fill:#1e293b;font-weight:600}.cap{font-size:14px;fill:#1e293b;font-weight:700}.sub{font-size:11px;fill:#64748b}</style>
<text x="260" y="26" text-anchor="middle" class="cap">Impact Sunburst · io.ktor</text>
<text x="260" y="44" text-anchor="middle" class="sub">3.0.0 -&gt; 3.4.3 &#183; 24 archivos</text>
<path d="M 260.00 200.00 L 260.00 155.00 A 135.00 135.00 0 1 1 143.09 357.50 L 182.06 335.00 A 90.00 90.00 0 1 0 260.00 200.00 Z" fill="#312e81" opacity="0.85"/>
<text x="357.9" y="346.5" text-anchor="middle" class="lbl" fill="#fff">commonMain</text>
<path d="M 182.06 335.00 L 143.09 357.50 A 135.00 135.00 0 0 1 129.60 255.06 L 173.07 266.71 A 90.00 90.00 0 0 0 182.06 335.00 Z" fill="#0f766e" opacity="0.85"/>
<text x="148.0" y="304.7" text-anchor="middle" class="lbl" fill="#fff">androidMain</text>
<path d="M 173.07 266.71 L 129.60 255.06 A 135.00 135.00 0 0 1 192.50 173.09 L 215.00 212.06 A 90.00 90.00 0 0 0 173.07 266.71 Z" fill="#9d174d" opacity="0.85"/>
<text x="170.4" y="221.2" text-anchor="middle" class="lbl" fill="#fff">iosMain</text>
<path d="M 215.00 212.06 L 192.50 173.09 A 135.00 135.00 0 0 1 260.00 155.00 L 260.00 200.00 A 90.00 90.00 0 0 0 215.00 212.06 Z" fill="#6b7280" opacity="0.85"/>
<text x="230.8" y="180.9" text-anchor="middle" class="lbl" fill="#fff">commonTest</text>
<path d="M 260.00 150.00 L 260.00 90.00 A 200.00 200.00 0 0 1 433.21 190.00 L 381.24 220.00 A 140.00 140.00 0 0 0 260.00 150.00 Z" fill="#B91C1C" opacity="0.9"/>
<path d="M 381.24 220.00 L 433.21 190.00 A 200.00 200.00 0 0 1 260.00 490.00 L 260.00 430.00 A 140.00 140.00 0 0 0 381.24 220.00 Z" fill="#1D4ED8" opacity="0.9"/>
<path d="M 260.00 430.00 L 260.00 490.00 A 200.00 200.00 0 0 1 86.79 390.00 L 138.76 360.00 A 140.00 140.00 0 0 0 260.00 430.00 Z" fill="#94A3B8" opacity="0.9"/>
<path d="M 138.76 360.00 L 86.79 390.00 A 200.00 200.00 0 0 1 60.00 290.00 L 120.00 290.00 A 140.00 140.00 0 0 0 138.76 360.00 Z" fill="#1D4ED8" opacity="0.9"/>
<path d="M 120.00 290.00 L 60.00 290.00 A 200.00 200.00 0 0 1 66.81 238.24 L 124.77 253.77 A 140.00 140.00 0 0 0 120.00 290.00 Z" fill="#94A3B8" opacity="0.9"/>
<path d="M 124.77 253.77 L 66.81 238.24 A 200.00 200.00 0 0 1 118.58 148.58 L 161.01 191.01 A 140.00 140.00 0 0 0 124.77 253.77 Z" fill="#1D4ED8" opacity="0.9"/>
<path d="M 161.01 191.01 L 118.58 148.58 A 200.00 200.00 0 0 1 160.00 116.79 L 190.00 168.76 A 140.00 140.00 0 0 0 161.01 191.01 Z" fill="#94A3B8" opacity="0.9"/>
<path d="M 190.00 168.76 L 160.00 116.79 A 200.00 200.00 0 0 1 260.00 90.00 L 260.00 150.00 A 140.00 140.00 0 0 0 190.00 168.76 Z" fill="#1D4ED8" opacity="0.9"/>
<g transform="translate(20,560)"><rect width="14" height="14" fill="#B91C1C"/><text x="20" y="11" class="sub">Directo</text><rect x="90" width="14" height="14" fill="#1D4ED8"/><text x="110" y="11" class="sub">Transitivo</text><rect x="200" width="14" height="14" fill="#94A3B8"/><text x="220" y="11" class="sub">Expect/Actual</text><rect x="330" width="14" height="14" fill="#e5e7eb" stroke="#cbd5e1"/><text x="350" y="11" class="sub">Sin impacto</text></g>
</svg>